<svg xmlns="http://www.w3.org/2000/svg" viewBox="0 0 929.47 886.36"><defs><style>.cls-1{fill:#fff;}</style></defs><g id="Capa_2" data-name="Capa 2"><g id="Capa_1-2" data-name="Capa 1"><path class="cls-1" d="M465.13,886.35H5.67c-6.49,0-5.63.52-5.63-5.61q0-312.48,0-625c0-6-.72-5.43,5.32-5.44q18,0,36,0a37.6,37.6,0,0,1,3.83.13c.34,0,.76.52.92.89a4.21,4.21,0,0,1,.11,1.43c0,1.59,0,3.19,0,4.79q0,288.51,0,577c0,1.6,0,3.19.08,4.79a1.23,1.23,0,0,0,1.23,1.2,13.55,13.55,0,0,0,1.43.08H875.77c1.76,0,3.52,0,5.27-.08a1.16,1.16,0,0,0,1.2-1.21c0-1.28.07-2.56.07-3.84V53.7c0-1.6,0-3.2,0-4.8,0-1.22-.71-1.66-1.81-1.67H732.29c-1.28,0-2.56,0-3.84,0-1.92-.06-2.18-.26-2.16-2.31.09-8.47.24-16.94.35-25.41.08-5.76.12-11.51.23-17.27,0-2,.22-2.12,2.24-2.18,1.12,0,2.24,0,3.36,0q95.68,0,191.36,0c6.48,0,5.6-.8,5.6,5.55q0,437.67,0,875.35c0,6,.76,5.42-5.32,5.42Z"/><path class="cls-1" d="M227.52,157c.22,19.94-14,34.18-32.43,36.35a45.82,45.82,0,0,1-19.85-1.8c-18.34-6-26.57-23-24.31-39.77,2.63-19.44,17.34-28.76,30.3-30.82a45.89,45.89,0,0,1,19,.66C218.55,126.34,227.73,141.24,227.52,157Zm-20.14,0c.2-11-8-18.67-18-18.74-10.32-.07-18.6,7.55-18.64,18.74,0,10.82,8,18.94,18.64,18.77C200.31,175.6,207.57,167.33,207.38,157Z"/><path class="cls-1" d="M294.25,28.19H275.44c-1.14,0-1.63-.82-2.13-1.65a16.38,16.38,0,0,0-9.74-7.23c-8.77-2.63-19.83,1.35-22.22,13.09a22.5,22.5,0,0,0,.55,11.81c2,5.86,5.9,9.77,12.09,11.08,7.07,1.5,13.29,0,18.32-5.42a4.78,4.78,0,0,0,1-1.61.76.76,0,0,0-.6-1c-.95-.09-1.91-.14-2.86-.15-3.67,0-7.35,0-11,0-1.56,0-1.92-.4-1.95-2-.05-2.71-.05-5.43,0-8.14,0-1.88.22-2.06,2.33-2.06q16.77,0,33.54,0c.32,0,.64,0,1,0,.87.08,1.54.43,1.51,1.43C294.85,49.58,289,64,274.61,70.42c-12.48,5.62-24.93,4.94-36.7-2-10-5.92-15.3-15.1-16.55-26.61a39.15,39.15,0,0,1,1.81-17.47c3.74-10.62,10.92-17.93,21.47-21.64A39.61,39.61,0,0,1,275.4,4.18C284.88,8.59,291.23,15.83,294,26A16,16,0,0,1,294.25,28.19Z"/><path class="cls-1" d="M12.14,157.19V127.51c0-1.12,0-2.24,0-3.35.06-1.84.2-2,1.85-2.07.47,0,.95,0,1.43,0,8.62,0,17.23,0,25.85,0a38.25,38.25,0,0,1,10.85,1.55c13.3,3.88,23.23,14.58,24.39,30.9A35.78,35.78,0,0,1,74.3,170c-4.5,11.66-13.15,18.5-25.21,21.17a42.63,42.63,0,0,1-9.51.94c-7.66-.08-15.31,0-23,0l-2.87,0a1.37,1.37,0,0,1-1.54-1.41c-.06-1.27-.06-2.55-.06-3.82Zm19.34-.3h0q0,7.91,0,15.82c0,.9.37,1.56,1.35,1.56a92.46,92.46,0,0,0,9.57-.2c6.63-.77,11.09-4.45,13.34-10.79a20.67,20.67,0,0,0,.77-9c-.69-7.13-5.44-12.36-12.44-14-3.48-.83-7-.53-10.5-.56-1.79,0-2.09.33-2.1,2.35C31.46,147,31.48,151.93,31.48,156.89Z"/><path class="cls-1" d="M113.74,26.64V2.76c.63-.3.91-.54,1.19-.54,5.43,0,10.87-.06,16.3,0,1.57,0,1.86.38,1.93,2,0,.64,0,1.28,0,1.92V68c0,4.47.18,4.24-4.1,4.23-4.95,0-9.89,0-14.88,0-.84-3.06-.35-5.94-.43-8.79-.08-3,0-6.07,0-9.11,0-2.85,0-5.69,0-8.62a15.79,15.79,0,0,0-2.17-.32q-8.16,0-16.31,0c-2.45,0-2.54.11-2.55,2.81,0,6.23,0,12.47,0,18.7,0,1.12,0,2.24,0,3.36-.07,1.57-.42,2-2,2-5.12,0-10.23,0-15.35,0-1.87,0-2.09-.31-2.17-2.32,0-.48,0-1,0-1.44V5.61a13.58,13.58,0,0,1,.12-2.39,1,1,0,0,1,1-.93c.16,0,.31-.11.47-.11,5.43,0,10.87,0,16.3,0A1.57,1.57,0,0,1,92.66,4c0,5.76,0,11.51,0,17.27,0,1.88-.81,4.16.43,5.54s3.62.5,5.49.55c4,.1,8,0,12,0A4.47,4.47,0,0,0,113.74,26.64Z"/><path class="cls-1" d="M584.12,46.94c4.37,8.45,9.11,16.37,13.16,24.52-.75,1.06-1.61.72-2.32.73-5.11,0-10.23-.17-15.33.09-2.72.14-4-.92-5.14-3.2-2.39-4.87-5-9.61-7.58-14.4-.45-.85-.89-1.7-1.35-2.54a2.44,2.44,0,0,0-1.87-1.31c-5.07-.77-5.74-.21-5.74,4.9,0,4.79,0,9.58,0,14.38,0,1.64-.4,2.06-1.91,2.07-5.27,0-10.55,0-15.82,0-1,0-1.41-.61-1.46-1.51s0-1.91,0-2.87V6.43c0-1,0-1.92,0-2.88a1.33,1.33,0,0,1,1.51-1.4c.47,0,1,0,1.43,0,9.11,0,18.22,0,27.33,0A27.37,27.37,0,0,1,582,5.05a22.7,22.7,0,0,1,12.82,19c.88,8.94-1.92,16.35-9.36,21.75C585,46,584.72,46.39,584.12,46.94ZM558,26.19c0,2.81,0,4.88,0,7a1.25,1.25,0,0,0,1.14,1.31c3.5.06,7,.48,10.49-.44a7.39,7.39,0,0,0-.48-14.44,12.92,12.92,0,0,0-3.34-.2c-2.5.19-5.06-.62-7.5.46C557.54,22.17,558.18,24.57,558,26.19Z"/><path class="cls-1" d="M295.57,72.21a8,8,0,0,1,1-4.29q12-30.73,24.08-61.45c.35-.89.75-1.77,1.07-2.67a2.31,2.31,0,0,1,2.53-1.66c5,0,9.9.09,14.85,0,1.76,0,2.55.76,3.14,2.25,3.34,8.45,6.73,16.88,10.11,25.32q7.54,18.87,15.09,37.75c.58,1.45,1.51,2.81,1.33,4.76-6.4,0-12.76,0-19.13,0a2,2,0,0,1-2.1-1.56c-1-2.7-1.85-5.44-2.8-8.14-.32-.91-.76-1.67-2-1.67-7.66,0-15.31,0-23.15,0-1.15,3.29-2.25,6.43-3.32,9.58a2.34,2.34,0,0,1-2.46,1.78C307.78,72.19,301.72,72.21,295.57,72.21Zm43.6-27c-2.15-6.61-4.46-13.13-7.4-20.75-2.6,7.65-5.18,14.07-7.14,20.76A52.07,52.07,0,0,0,339.17,45.18Z"/><path class="cls-1" d="M150.17,192.13c-6.2,0-12.43,0-18.65,0a2.2,2.2,0,0,1-2.45-1.71c-.82-2.58-1.8-5.11-2.62-7.69a2.51,2.51,0,0,0-2.78-2c-6.86.07-13.73.06-20.6,0a2.4,2.4,0,0,0-2.67,2.06c-.77,2.59-1.78,5.12-2.64,7.69a2,2,0,0,1-2.05,1.62H77.15c-.41-1.63.37-2.75.82-3.89q12.27-31.41,24.61-62.8a10,10,0,0,0,.55-1.32,2.39,2.39,0,0,1,2.72-2.06c5,.06,9.9.08,14.85,0,1.76,0,2.49.77,3.09,2.3,3.5,8.91,7.08,17.78,10.64,26.66q7.31,18.21,14.59,36.41C149.59,188.84,150.67,190.18,150.17,192.13Zm-36.44-47.06c-1.64,1.41-1.74,3.11-2.29,4.57-1.73,4.61-3.31,9.29-4.92,14-.45,1.3-.07,2,1.11,2,4.28,0,8.57.31,13.23-.24C118.47,158.51,116.15,151.94,113.73,145.07Z"/><path class="cls-1" d="M482.37,2.3c1.18,0,2.13-.14,3.08-.14q18.69,0,37.39,0l2.39,0a1.33,1.33,0,0,1,1.5,1.42q0,6.95,0,13.9a1.11,1.11,0,0,1-1.19,1.18c-1.11.05-2.23.05-3.35.05-6.07,0-12.14,0-18.22,0-2.45,0-2.6.18-2.64,2.78,0,2.38,0,4.75,0,6.93,1.19,1,2.36.69,3.44.69,5.75,0,11.5,0,17.25,0,1.94,0,2.21.29,2.23,2.23,0,3.83,0,7.67,0,11.5,0,1.84-.39,2.19-2.33,2.21-4.95,0-9.91,0-14.86,0-6.7.07-5.64-1-5.72,5.87-.05,4.78-.36,4.32,4.4,4.33,5.91,0,11.82,0,17.73,0l2.4,0a1.58,1.58,0,0,1,1.75,1.76c0,3,0,6.07,0,9.11,0,1.59,0,3.19-.09,4.79a1.15,1.15,0,0,1-1.22,1.17c-.64,0-1.28.05-1.92.05H485.57c-.8,0-1.6,0-2.39-.08a1,1,0,0,1-.94-.89,11,11,0,0,1-.15-1.9q0-32.6,0-65.2A17.18,17.18,0,0,1,482.37,2.3Z"/><path class="cls-1" d="M146.57,37.12V7.41c0-1.28,0-2.55.05-3.83,0-1,.6-1.38,1.51-1.4l1.92,0h37.84c.64,0,1.28,0,1.92,0,.88.06,1.53.47,1.53,1.45,0,4.47,0,8.94,0,13.41,0,1.21-.71,1.66-1.82,1.67l-3.35,0c-5.91,0-11.82,0-17.73,0-2.58,0-2.66.09-2.67,2.73,0,2.37.14,4.74.21,7.12,2.41,1.23,5,.44,7.48.53,4.3.15,8.62,0,12.93.05,2.05,0,2.3.25,2.32,2.11,0,3.84,0,7.67,0,11.5,0,1.93-.36,2.25-2.18,2.33-1,0-1.92,0-2.88,0-4.47,0-8.94,0-13.41,0-5,0-4.47-.53-4.49,4.73,0,1.27,0,2.55,0,3.83s.69,1.64,1.8,1.64c6.55,0,13.09,0,19.64,0,5.2,0,4.92-.59,4.91,4.88q0,5.26-.06,10.54a1.35,1.35,0,0,1-1.48,1.46c-.8,0-1.6,0-2.4,0H150.37c-.64,0-1.28,0-1.92,0-1.61-.08-1.8-.29-1.86-2.08,0-1.11,0-2.23,0-3.35Z"/><path class="cls-1" d="M629.48,26.45c1.54-.55,1.79-1.94,2.35-3,3.21-6.24,6.42-12.48,9.46-18.81a3.77,3.77,0,0,1,4-2.5c5.43.14,10.86,0,16.29.06.57,0,1.26-.19,1.77.61-.22,1.51-1.27,2.74-2,4.09q-9.72,17-19.52,34a14.58,14.58,0,0,0-2.23,8.1c.19,6.22.06,12.45,0,18.68,0,1,0,1.92,0,2.87,0,1.21-.74,1.66-1.85,1.66-3.67,0-7.34.11-11,0-2.16-.08-4.83,1-6.36-.7-1.3-1.49-.45-4-.47-6-.06-5.43-.15-10.87,0-16.29a15.55,15.55,0,0,0-2.33-8.57c-6.5-11.16-12.83-22.42-19.23-33.65C597.86,6,597.28,5,596.76,4c-.61-1.15-.25-1.83,1-1.85,3,0,6.06,0,9.1,0,2.39,0,4.8.16,7.18-.05s3.65.93,4.65,3c2.69,5.61,5.58,11.12,8.39,16.66C627.89,23.35,628.69,24.91,629.48,26.45Z"/><path class="cls-1" d="M64.1,2.28A86.1,86.1,0,0,1,64,19.54H52.11c-1.28,0-2.56,0-3.83,0-2.58.05-2.67.09-2.67,2.71,0,14.7,0,29.4,0,44.1,0,6.83.69,5.79-5.84,5.86-3.68,0-7.35,0-11,0-2.5,0-2.58-.15-2.64-2.82,0-1.12,0-2.24,0-3.36q0-20.61,0-41.22c0-1.28,0-2.56,0-3.83a1.33,1.33,0,0,0-1.5-1.42l-3.84,0c-4,0-8,0-12,0a1.34,1.34,0,0,1-1.48-1.46q0-7.19,0-14.38A1.37,1.37,0,0,1,8.69,2.18c.64,0,1.28,0,1.92,0H61.89C62.52,2.16,63.15,2.23,64.1,2.28Z"/><path class="cls-1" d="M429,37q0-14.87,0-29.72c0-1.28,0-2.56.07-3.83a1.23,1.23,0,0,1,1.21-1.22c1.12-.08,2.24-.09,3.35-.09,4,0,8,0,12,0,3,0,3,.05,3.08,3.31,0,1,0,1.92,0,2.87q0,20.38,0,40.75,0,1.92,0,3.84a1.33,1.33,0,0,0,1.49,1.43c1.11,0,2.23,0,3.35,0H468.4c1.12,0,2.24,0,3.36,0a1.63,1.63,0,0,1,1.77,1.78c0,2.4.12,4.8,0,7.19-.15,2.82.64,5.71-.56,8.46-2.65.73-5.37.33-8,.35-10.23,0-20.45,0-30.68,0-1.12,0-2.24,0-3.35,0-1.5-.07-1.84-.45-1.91-2.1-.05-1.12,0-2.24,0-3.36Z"/><path class="cls-1" d="M420.43,72.06c-1.51.07-2.46.15-3.41.15H380.14c-1,0-1.91,0-2.87-.09a1.18,1.18,0,0,1-1.2-1.21C376,70,376,69,376,68.05V6.27c0-.8,0-1.6,0-2.4,0-1.2.65-1.7,1.78-1.7,3,0,6.07-.12,9.09,0,2.8.13,5.68-.69,8.4.58.71,2.67.31,5.38.32,8.07.05,12,0,24,0,35.93,0,.63,0,1.27,0,1.91.07,6.45-.78,5.67,5.47,5.71,4.63,0,9.26,0,13.89,0,1.12,0,2.24,0,3.35,0,1.7.06,2.07.35,2.08,1.92C420.46,61.42,420.43,66.51,420.43,72.06Z"/><path class="cls-1" d="M573,583.21a198.57,198.57,0,0,1-198.57-199c.18-109.27,89.34-198.18,198.69-198.12,109.79.06,198.72,89.25,198.56,199.15C771.54,494.53,682.5,583.25,573,583.21Z"/><path class="cls-1" d="M464.63,803.7q-174.79,0-349.59.19c-7.93,0-10.09-1.67-10.08-9.89q.44-211.59,0-423.17c0-8.71,2.54-10.64,10.66-10.31,15.36.62,15.38.17,15.38,15.62q0,196-.19,391.9c0,8,1.75,10.09,10,10.08q323.82-.39,647.66,0c8.23,0,10-2.11,10-10.09-.36-60.71,0-121.43-.37-182.14,0-7.82,1.43-10.73,9.94-10.34,16,.72,16,.17,16,15.93,0,67.77-.11,135.54.16,203.31,0,7.15-1.75,9.09-9,9.08Q639.88,803.51,464.63,803.7Z"/><path class="cls-1" d="M572.23,748.23c-63.12,0-126.24-.12-189.35.16-6.84,0-8.81-1.57-8.63-8.55.51-19.9.39-39.83.05-59.74-.11-6,1-8.41,7.81-8.4q190.74.33,381.48,0c6.28,0,8.44,1.44,8.3,8.06q-.66,30.33,0,60.66c.16,6.87-2.42,7.92-8.47,7.9C699.7,748.15,636,748.23,572.23,748.23Z"/><path class="cls-1" d="M573.2,616.6c63.15,0,126.31.11,189.46-.15,7,0,9.94,1.47,9.22,9a139.92,139.92,0,0,0,0,22c.37,5.77-1.69,7.34-7.29,7.23-17.47-.32-34.95-.11-52.42-.11q-164.18,0-328.34.18c-7.65,0-10.35-1.87-9.46-9.54,1.08-9.3-4-21.86,2.09-27.16,5.27-4.62,17.48-1.47,26.63-1.48Q488.13,616.54,573.2,616.6Z"/></g></g></svg>