<svg xmlns="http://www.w3.org/2000/svg" viewBox="0 0 929.4 886.28"><defs><style>.cls-1{fill:#fff;}</style></defs><g id="Capa_2" data-name="Capa 2"><g id="Capa_1-2" data-name="Capa 1"><path class="cls-1" d="M464.63,886.24q-229.21,0-458.44,0c-7.23,0-6.13,1-6.13-6Q0,568.33,0,256.39c0-1.12,0-2.24,0-3.36.05-2.63.06-2.69,2.72-2.69q20.38,0,40.76,0a11.55,11.55,0,0,1,1.44,0,1.19,1.19,0,0,1,1.15,1.23q.06,2.4.06,4.8,0,134.26,0,268.54,0,154.65,0,309.3c0,7.13-1.07,6.27,6.4,6.27H876c1.91,0,4.26.77,5.6-.41,1.58-1.4.66-3.92.66-5.94q0-390.34,0-780.69c0-7.3,1-6.29-6.35-6.3q-72.17,0-144.34,0c-6.1,0-5.36.65-5.3-5.38.12-12.62.35-25.25.53-37.87A18.09,18.09,0,0,1,727,1.05a1.35,1.35,0,0,1,.89-.92,37.6,37.6,0,0,1,3.83-.1H770Q847,0,924,0c6.15,0,5.39-.79,5.39,5.26q0,437.82,0,875.64c0,6.09.85,5.3-5.33,5.3Q694.34,886.26,464.63,886.24Z"/><path class="cls-1" d="M275.89,34.78c5.75,0,11.5,0,17.25,0,1.6,0,2.09.49,2,2-.71,18.06-10.58,31.33-25,35.45-14.16,4-27.25,1.87-38.32-8.38-6.34-5.87-9.66-13.38-10.5-22a38.7,38.7,0,0,1,2-17.92c5.25-13.67,15.36-21.21,29.73-23a39.32,39.32,0,0,1,21.11,2.84c10.08,4.44,16.9,11.77,19.84,22.51.43,1.57.09,2.05-1.58,2.06-5.27,0-10.54,0-15.81.06a3.71,3.71,0,0,1-3.48-1.93C268.87,20,262.67,18,255.27,19a15.4,15.4,0,0,0-12.7,9.68,21.09,21.09,0,0,0-.07,17.22c2.53,5.94,7.14,9.23,13.57,9.88a19.89,19.89,0,0,0,11.18-1.81,15,15,0,0,0,5.22-4.11c.48-.62,1.13-1.26.88-2.09-.31-1-1.3-.68-2-.69-4.31,0-8.62,0-12.94,0-.9,0-1.5-.38-1.51-1.38,0-3,0-6.07,0-9.1a1.56,1.56,0,0,1,1.77-1.73h17.25Z"/><path class="cls-1" d="M189.8,120.32a40.18,40.18,0,0,1,20.58,5.53c10.27,6.23,15.84,15.48,17,27.39a38.3,38.3,0,0,1-1.51,15.63c-3.7,11.24-11.27,18.79-22.36,22.62a42.93,42.93,0,0,1-28.69,0c-18.45-6.43-25.9-23.09-23.89-39.15,2.71-21.7,19.74-30.56,33.19-31.64C186,120.53,187.89,120.44,189.8,120.32ZM189,175.75c10.49.3,18.3-7.78,18.43-18.32.12-10-6.33-19.07-18.19-19.1s-18.36,8.9-18.52,18.38C170.52,167.67,178.46,175.87,189,175.75Z"/><path class="cls-1" d="M12.15,157V127.27c0-1.11,0-2.23,0-3.35s.46-1.82,1.67-1.84c.48,0,1,0,1.44,0,8.47,0,16.94,0,25.41,0a40.5,40.5,0,0,1,12.73,2c13.26,4.49,22,15.3,23.09,30.49a37.69,37.69,0,0,1-1.33,12.8c-3.68,13.39-14.82,22.73-29.46,24.43a41.17,41.17,0,0,1-4.3.25q-13.43,0-26.85,0c-2.24,0-2.4-.17-2.4-2.46,0-7.83,0-15.66,0-23.49Zm19.34-.2h0v15.83c0,1.09.37,1.84,1.62,1.83,2.71,0,5.44.14,8.15-.05a16,16,0,0,0,14.88-12.19,22,22,0,0,0,.43-7.62A15.71,15.71,0,0,0,41.51,140c-2.71-.17-5.43-.09-8.15-.06-1.58,0-1.84.31-1.86,2.05C31.47,146.89,31.49,151.85,31.49,156.8Z"/><path class="cls-1" d="M92.68,45.34c0,4.87,0,9.16,0,13.45V71.6c-4,.78-15.58.78-19.4,0-.05-1.06-.15-2.16-.15-3.26q0-30.93,0-61.85c0-4.62-.11-4.38,4.5-4.36,4,0,8,0,12,0,2.93,0,3,.12,3.06,2.9,0,5.75,0,11.5,0,17.26,0,6-.51,5.21,5.48,5.25q6.22,0,12.46,0c3,0,3.13-.16,3.15-3.33,0-6.08,0-12.15,0-18.22a19.57,19.57,0,0,1,.14-2.87,1,1,0,0,1,1-.91c.15,0,.31-.07.47-.07,5.27,0,10.54,0,15.82,0,1.6,0,1.92.4,2,2,0,.8,0,1.6,0,2.4v65c-1.81.88-3.44.54-5,.55-4.16,0-8.31,0-12.47,0-1.65,0-1.89-.26-1.9-2,0-6.39,0-12.78,0-19.18,0-1.43,0-2.87-.11-4.3a1.3,1.3,0,0,0-1.21-1.25,5,5,0,0,0-1-.11Z"/><path class="cls-1" d="M584.25,47.4l12.89,23.77c-.31,1-.83,1-1.26,1-5.75,0-11.49,0-17.24.08A3.62,3.62,0,0,1,574.92,70c-2.75-5.4-5.76-10.67-8.44-16.1-1.14-2.31-2.5-3.56-5.15-3-.78.14-1.61,0-2.39.11a1.4,1.4,0,0,0-.9.89,18.15,18.15,0,0,0-.13,2.86c0,4.95,0,9.9,0,14.85,0,2.32-.26,2.62-2.32,2.64-5.11,0-10.21,0-15.32,0-.91,0-1.51-.38-1.54-1.37s0-1.91,0-2.87V6.61c0-1,0-1.92,0-2.87.07-1.15.73-1.65,1.87-1.65,6.87,0,13.73,0,20.6,0,4.46,0,8.92-.18,13.37.61C590.92,5.63,598,20.77,593.69,34.78a21.36,21.36,0,0,1-7.37,10.38C585.6,45.74,584.58,46,584.25,47.4ZM557.91,27.07h0c0,1.91,0,3.81,0,5.72,0,1.14.4,1.77,1.62,1.75s2.23,0,3.34,0a47.24,47.24,0,0,0,5.71-.16,7.39,7.39,0,0,0,6.59-7c.22-3.64-2-6.61-5.86-7.6a14,14,0,0,0-3.76-.42c-2.35.05-4.73-.4-7,.31-1.25,2.23-.31,4.64-.59,7A3.84,3.84,0,0,0,557.91,27.07Z"/><path class="cls-1" d="M322.77,2.27h18.48c9.33,22.93,18.47,46,27.68,69-.74,1.25-1.77.94-2.63.94q-7.44,0-14.86,0c-2.57,0-3.43.8-4.58-3.47-.54-2-1.31-3.93-2-5.89A2.38,2.38,0,0,0,342.38,61q-10.54.06-21.08,0a2.27,2.27,0,0,0-2.42,1.83c-.85,2.57-1.73,5.13-2.62,7.7-.27.78-.72,1.51-1.62,1.53-6.35.16-12.7.09-19.14.06C296.38,68.2,320.59,6.28,322.77,2.27Zm1.52,43.54h14.12a.74.74,0,0,0,.45-.12c.1-.08.11-.27.15-.41-2.17-8.14-5.85-17.8-7.64-19.71C329,32.24,326.74,38.79,324.29,45.81Z"/><path class="cls-1" d="M77.07,191.63c-.2-1.19.47-2.16.86-3.17Q90.22,157,102.57,125.65c1.46-3.71.89-3.61,5.06-3.6s8.31.1,12.46,0c2.12-.07,3.07.77,3.81,2.71,2.49,6.55,5.19,13,7.8,19.55q8.75,21.75,17.48,43.51a32.76,32.76,0,0,1,1.14,3.14.8.8,0,0,1-.69,1,5,5,0,0,1-.94.12c-5.75,0-11.51,0-17.26,0A2.25,2.25,0,0,1,129,190.3c-.78-2.43-1.72-4.81-2.46-7.25a2.52,2.52,0,0,0-2.7-2.13c-7,0-14.06,0-21.09,0a2.23,2.23,0,0,0-2.34,1.89c-.8,2.59-1.78,5.12-2.64,7.69A1.89,1.89,0,0,1,96.13,192C94.27,192.26,79.31,192,77.07,191.63Zm43.36-25.95c-.47-3.68-5-16.57-7.31-20.5-1.28,3.49-2.61,6.72-3.63,10s-2.88,6.64-3.11,10.46Z"/><path class="cls-1" d="M166.19,29.38c5.16,0,10.25-.05,15.34,0,2.22,0,4.46-.36,6.64.32,1.22,2.24.39,4.65.54,7s0,4.47,0,6.7c0,1.23-.64,1.7-1.76,1.7H171.66l-4.31,0a1.35,1.35,0,0,0-1.54,1.38,6.16,6.16,0,0,0,0,1c.17,2.52-.41,5.07.33,7.57,2.44,1.13,5,.41,7.5.48,4.95.13,9.9,0,14.85.05a5.84,5.84,0,0,1,3.59.56c.16,4.72,0,9.64,0,14.57a1.36,1.36,0,0,1-1.42,1.53c-.8,0-1.6,0-2.39,0H150.45a24.61,24.61,0,0,1-2.85-.13,1,1,0,0,1-.91-.93c-.06-.64-.1-1.27-.1-1.91V5.11a6.6,6.6,0,0,1,.17-1.89,1.59,1.59,0,0,1,.91-.94,7,7,0,0,1,1.9-.12h38.79c.48,0,1,0,1.43,0A1.48,1.48,0,0,1,191.3,3.7q.07,6.71,0,13.4c0,1.41-.54,1.83-2.18,1.84-5.59,0-11.18,0-16.76,0-1.76,0-3.51,0-5.27.05-.71,0-1.27.38-1.28,1.09C165.82,23.11,165.44,26.13,166.19,29.38Z"/><path class="cls-1" d="M482.5,71.87c-.66-1-.41-2.16-.41-3.26q0-31.17,0-62.35c0-.64,0-1.28,0-1.91.1-1.81.42-2.17,2.33-2.18q16.31,0,32.61,0c2.72,0,5.44,0,8.15,0a1.38,1.38,0,0,1,1.49,1.5q.08,6.71,0,13.43c0,1.44-.47,1.8-2.16,1.81-6.08,0-12.15,0-18.22,0-1.28,0-2.56,0-3.84.07a1.16,1.16,0,0,0-1.15,1.23,7.72,7.72,0,0,0-.05,1c.19,2.52-.46,5.09.39,7.58,2.4,1.25,5,.45,7.45.53,4.31.16,8.63,0,12.95.07,1.7,0,2.09.36,2.11,1.86q.06,6,0,12c0,1.52-.36,1.82-2.11,1.84-4.63,0-9.27,0-13.9,0-1.6,0-3.2,0-4.8,0s-2,.29-2.1,1.83a3.84,3.84,0,0,0,0,.48c.15,2.53-.35,5.09.3,7.6,2.44,1.14,5,.43,7.52.49,5.59.13,11.19.05,16.78,0,1.22,0,1.7.61,1.7,1.76,0,4.48,0,9,0,13.43a1.36,1.36,0,0,1-1.47,1.48c-.8,0-1.6,0-2.39,0H485.79C484.69,72.25,483.54,72.47,482.5,71.87Z"/><path class="cls-1" d="M629.5,26.74c1.59-1.11,1.89-2.43,2.46-3.54,3.2-6.25,6.4-12.5,9.47-18.81a3.53,3.53,0,0,1,3.71-2.26c5.59.09,11.18,0,16.77.05.44,0,1-.16,1.35.66.07,1.46-1.14,2.65-1.89,4q-9.93,17.49-20,34.91a12.53,12.53,0,0,0-1.85,6.75c.13,7.66.05,15.33.05,22.76-.86,1.17-1.88.93-2.78.94-4.8,0-9.59,0-14.39,0-2.33,0-2.5-.19-2.51-2.42,0-6.87-.1-13.75,0-20.62A15.06,15.06,0,0,0,617.79,41c-6.68-11.44-13.16-23-19.71-34.51a30.92,30.92,0,0,1-1.59-2.94c-.26-.62-.09-1.34.77-1.34,6.07,0,12.14,0,18.21,0a2.35,2.35,0,0,1,2.28,1.42c1.56,3.14,3.17,6.26,4.76,9.39Z"/><path class="cls-1" d="M36,2.16H59c1.12,0,2.24,0,3.36,0,1.7.05,2.1.34,2.11,1.84,0,4.64,0,9.27,0,13.91,0,1.2-.66,1.67-1.8,1.67-3.68,0-7.36,0-11,0l-4.32,0c-1.2,0-1.7.67-1.7,1.8,0,1.28,0,2.56,0,3.84q0,20.63,0,41.24c0,1.12,0,2.24,0,3.36-.06,2-.3,2.27-2.17,2.29-3.83,0-7.67,0-11.51,0-1.43,0-2.87,0-4.31-.06a1.35,1.35,0,0,1-1.46-1.49c0-1.28,0-2.56,0-3.84q0-20.39,0-40.76v-2.4c0-4.16.09-4-3.81-4H11.74c-1,0-1.92,0-2.87,0s-1.59-.4-1.59-1.38Q7.22,11,7.26,3.82c0-1.16.69-1.66,1.84-1.66,4.63,0,9.27,0,13.91,0Z"/><path class="cls-1" d="M473.5,71.46a4.32,4.32,0,0,1-3.05.72H432.12a15.18,15.18,0,0,1-1.91-.09A1.23,1.23,0,0,1,429,70.88C429,69.92,429,69,429,68V6.67c0-.64,0-1.27,0-1.91.08-2.29.28-2.56,2.42-2.59,3.51,0,7,0,10.54,0,1.6,0,3.2,0,4.79,0s1.84.45,1.9,2.12c0,1.12,0,2.23,0,3.35V49.34c0,1.28,0,2.56.06,3.83,0,.95.62,1.38,1.54,1.39,1.27,0,2.55,0,3.83,0,5.75,0,11.5,0,17.25,0,1.94,0,2.17.26,2.18,2.27C473.52,61.81,473.5,66.74,473.5,71.46Z"/><path class="cls-1" d="M420.18,55.06c.48,3.7.14,7.52.2,11.33,0,1.73-.15,3.47-.23,5.21-1.76,1.11-3.71.54-5.56.55-11.17.06-22.34,0-33.52,0-1.57,0-3.19.32-4.71-.36-.63-1-.36-2.19-.36-3.27q0-31.12,0-62.25c0-.47,0-1,0-1.43.07-2.56.13-2.66,2.78-2.68q7.17-.06,14.36,0c2.12,0,2.35.3,2.43,2.56,0,1.12,0,2.24,0,3.36q0,20.82,0,41.65c0,1.27.09,2.54.14,3.82a1,1,0,0,0,.93.94,13.47,13.47,0,0,0,2.38.08c5.75,0,11.49,0,17.24,0C417.51,54.61,418.81,54.3,420.18,55.06Z"/><path class="cls-1" d="M256.63,731.1c17.25,2.9,31.17.8,44.26-8.85q167.82-123.66,336-246.86c1.21-.89,2.36-1.88,3.64-2.65,2.74-1.65,5.38-4.69,8.86-3s2.9,5.6,2.91,8.85c0,21.32,0,42.64,0,64,0,17.71-.34,35.44.28,53.14.36,10.42-3.64,17.55-11.79,23.63Q570.69,671.5,501,724.16c-2.86,2.16-8.63,4-7.21,7.71,1.34,3.5,7,1.51,10.75,1.53,31.22.11,62.45,0,93.67.15,13.13.05,14.54,1.58,14.64,14.4q.06,6.75,0,13.51c-.11,12.91-1.63,14.6-14.49,14.63q-65.31.15-130.61.07-48.64,0-97.29,0c-3.44,0-8.09,1.17-9.27-3.16-1.05-3.9,3.63-5,6.1-6.82,71-53.47,141.55-107.43,213.45-159.62,11.67-8.47,17.18-19.72,16-34.12-.19-2.23,1.17-5.21-1.44-6.51s-4.47,1.06-6.34,2.43c-12.6,9.2-25.15,18.49-37.73,27.72Q436.16,680.5,321.14,765a48,48,0,0,1-30.08,9.73c-53.14-.3-106.29-.15-159.43-.21-14.95,0-15.95-1-16-15.7-.06-52.24.08-104.49-.36-156.74-.08-9.78,3.3-16.48,10.94-22.1q103.38-76,206.6-152.23Q419.46,363.9,506,300c2-1.49,4.76-2.46,5.51-5.84-16.18-2.56-30.4.08-43.95,10.08Q298.43,429.08,128.85,553.38c-2.7,2-5.33,4.55-8.86,3.07-4.08-1.72-2.38-5.66-2.39-8.77-.08-39.33.17-78.67-.31-118-.13-10.45,3.7-17.58,11.81-23.63q70.05-52.17,139.84-104.7c3-2.27,6-4.68,9.06-7.1-3.31-3.82-6.81-2.49-9.92-2.5-31.82-.09-63.65,0-95.48-.1-14.59,0-15.61-1.18-15.47-16.13,0-2.7.07-5.4,0-8.1-.24-15.78,1-17.1,16.4-17.1q114,0,227.9.18c2.67,0,6.8-1.95,7.82,1.8.86,3.18-3,4.86-5.3,6.6Q299.43,337.11,194.82,415.23c-12.38,9.25-23.28,19.39-21.8,36.8.21,2.58-.61,6,2.29,7.29s4.79-1.72,6.88-3.26q135.53-99.17,271-198.39c6.86-5,14.51-7,22.82-7q81.51,0,163,.05c13.91,0,15.15,1.51,15.17,15.74.06,51.05-.22,102.09.39,153.13.15,12.8-4.28,21.54-14.39,28.92q-80,58.41-159.6,117.34C406.48,620.53,332.39,675.22,256.63,731.1ZM598.21,356.24H598q0-26.57,0-53.13c0-2.95,1.12-6.59-1.77-8.38-3.74-2.31-5.83,1.88-8.19,3.61Q461.42,391.27,335,484.4q-72.51,53.33-145.12,106.52C177.39,600,169.35,611,170.24,627.09c1.71,30.9.49,61.82.82,92.73,0,4.26-2.55,10.39,1.66,12.42,4,1.9,7.71-3.47,11.19-6Q385.86,577.69,587.7,429c7.42-5.46,10.78-12.23,10.6-21.46C598,390.47,598.21,373.35,598.21,356.24Z"/><path class="cls-1" d="M704.65,440.8q0-155.8,0-311.6c0-3.6.12-7.2.2-10.8.12-5.79,2.89-8.92,8.87-8.91q54.48,0,109,0c5.94,0,8.78,3.08,9,8.85.12,3,.28,6,.28,9q0,314.31,0,628.6c0,17.4-1,18.44-18.23,18.45q-46.83,0-93.65,0c-13.87,0-15.43-1.64-15.43-15.65Q704.64,599.75,704.65,440.8Z"/></g></g></svg>