<svg xmlns="http://www.w3.org/2000/svg" viewBox="0 0 929.69 886.53"><defs><style>.cls-1{fill:#fff;}</style></defs><g id="Capa_2" data-name="Capa 2"><g id="Capa_1-2" data-name="Capa 1"><path class="cls-1" d="M464.87,886.31q-229.24,0-458.48,0c-1.89,0-4.16.78-5.56-.46s-.55-3.63-.55-5.49q0-312,0-623.94c0-.95,0-1.91,0-2.87,0-3.14,0-3.18,3.19-3.18q19.91,0,39.81,0c.64,0,1.28,0,1.92,0a1.17,1.17,0,0,1,1.16,1.22c.05,1.6.07,3.2.07,4.79q0,117.51,0,235,0,171.45,0,342.9c0,7.15-1,6.34,6.36,6.34q411.72,0,823.44,0c2,0,4.46.94,5.89-.74,1.2-1.42.4-3.7.4-5.59q0-390.37,0-780.76c0-7.24,1.08-6.3-6.35-6.31q-71.94,0-143.87,0c-6.72,0-5.84.8-5.77-5.88.11-12.46.33-24.93.52-37.39a17,17,0,0,1,.19-2.86,1.37,1.37,0,0,1,.88-.93A26.73,26.73,0,0,1,731.47,0h27.34q82.73,0,165.45,0c6.09,0,5.39-.77,5.39,5.29q0,437.87,0,875.72c0,6.06.9,5.26-5.34,5.26Q694.59,886.33,464.87,886.31Z"/><path class="cls-1" d="M276.44,34.73c5.6,0,11.19,0,16.78,0,1.85,0,2.3.47,2.2,2.27-.48,8.29-2.57,16.08-7.6,22.84-6.38,8.58-15.06,13.11-25.65,14a41,41,0,0,1-16.08-1.69A34.92,34.92,0,0,1,221.5,41,39.13,39.13,0,0,1,223,25.41c4.55-13.69,14.14-21.78,28.18-24.31a39.33,39.33,0,0,1,23.47,2.68C284.55,8.23,291.3,15.45,294.22,26c.46,1.67.16,2.24-1.3,2.25-5.59.05-11.18,0-16.77.05a2.74,2.74,0,0,1-2.38-1.3,28.39,28.39,0,0,0-2.95-3.74c-7.91-7.66-25.64-6.66-29.15,8.74a23.11,23.11,0,0,0,.19,11.36,16.18,16.18,0,0,0,15.22,12.39A21.9,21.9,0,0,0,266,54.54,14.91,14.91,0,0,0,272,50.61c.76-.88,2.29-1.78,1.4-3.17-.63-1-2.06-.41-3.12-.42-3.83-.06-7.67,0-11.5,0-1.2,0-1.69-.56-1.67-1.74,0-2.88,0-5.76,0-8.63,0-1.48.45-1.82,2.1-1.89,1,0,1.92,0,2.87,0h14.38Z"/><path class="cls-1" d="M227.75,157.16c.16,18.83-12.6,32.7-29.72,35.79a45.62,45.62,0,0,1-21.78-1.09c-17.94-5.48-27.41-21.81-25.15-39.68,2.73-21.59,19.76-30.46,33.3-31.57A47,47,0,0,1,202,122C218.92,127.15,228,141.36,227.75,157.16Zm-20.16-.33c-.07-8.16-4.28-14.55-11.33-17.27-9.89-3.82-22.81.85-25,14.12-2.12,12.56,7.33,25.09,23.18,21.43C203.4,173,207.81,165.11,207.59,156.83Z"/><path class="cls-1" d="M12.35,157.27V127.11c0-1.27,0-2.55.1-3.82a1.28,1.28,0,0,1,1.23-1.22c.79-.07,1.59-.06,2.39-.06,8.14,0,16.28,0,24.41,0a41.22,41.22,0,0,1,13.18,2c13.13,4.43,22,15.17,23.08,30.43a37.59,37.59,0,0,1-1.31,12.79c-3.75,13.62-14.94,22.74-29.34,24.5a32.38,32.38,0,0,1-3.82.24q-13.87,0-27.76,0c-2.07,0-2.13-.09-2.15-2.23,0-5.43,0-10.85,0-16.28Zm19.36-.45h0v15.81c0,1.12.43,1.81,1.66,1.8,2.72,0,5.44.14,8.14-.06a16,16,0,0,0,14.85-12.22,22,22,0,0,0,.45-7.15,15.76,15.76,0,0,0-15.14-15.08c-2.39-.14-4.79-.08-7.19-.06-2.71,0-2.75,0-2.77,2.59C31.69,147.24,31.71,152,31.71,156.82Z"/><path class="cls-1" d="M93.6,27.52h18.49a1.63,1.63,0,0,0,1.82-1.73c0-1.28,0-2.56.06-3.84,0-5.27,0-10.55,0-15.82,0-1.25-.31-2.57.71-4h17c1.19,0,1.66.74,1.68,1.85,0,.79,0,1.59,0,2.39v65a3.5,3.5,0,0,1-2.93.79c-4.48,0-9,0-13.43,0-3,0-3.08.06-3.07-3.27,0-6.24,0-12.47,0-18.7,0-5.18.26-4.9-5-4.9-4.48,0-9,0-13.43,0-2.51,0-2.63.13-2.65,2.77,0,5.44,0,10.87,0,16.31v6.95a3.6,3.6,0,0,1-2.94.81q-7.44,0-14.87,0c-1.11,0-1.79-.51-1.77-1.72,0-.8,0-1.6,0-2.4V6.63c0-.48,0-1,0-1.44.07-2.93.14-3.05,2.91-3.07,4.63,0,9.27,0,13.9,0a10,10,0,0,1,1.44.09,1.28,1.28,0,0,1,1.24,1.21c.07,1.11.1,2.23.1,3.34,0,5.6,0,11.2,0,16.79C92.91,24.8,92.67,26.11,93.6,27.52Z"/><path class="cls-1" d="M539.35,2.42c.86-.6,1.84-.37,2.77-.37Q555.07,2,568,2A33.77,33.77,0,0,1,578.85,3.7a23.35,23.35,0,0,1,16.27,21.51c.46,8.43-2.4,15.33-9.24,20.44-1.7,1.28-1.56,1.42-.64,3.09q5.06,9.24,10.08,18.5c.76,1.4,1.49,2.81,2.2,4.15a1.86,1.86,0,0,1-1.75.77c-5.59,0-11.19-.11-16.78,0-2.14.07-3.13-.87-4-2.6-2.61-5.12-5.31-10.19-8.05-15.24-2.26-4.17-1.25-3.49-6.24-3.56-.47,0-1,0-1.43,0a1,1,0,0,0-1,.87,21.14,21.14,0,0,0-.13,2.87c0,5.11,0,10.23,0,15.34,0,1.76-.32,2.18-1.75,2.18-5.43,0-10.87,0-16.3,0A1.11,1.11,0,0,1,539,70.88c-.05-.8-.05-1.6-.05-2.4q0-31.15,0-62.32C538.92,4.91,538.64,3.6,539.35,2.42ZM558.2,26.25c0,2.74,0,4.8,0,6.86,0,.71.33,1.31,1,1.32a79,79,0,0,0,10-.19A7.16,7.16,0,0,0,575.43,27a7.2,7.2,0,0,0-5.76-7.19,11.94,11.94,0,0,0-3.75-.45c-2.48.17-5-.68-7.44.53C557.83,22.18,558.36,24.57,558.2,26.25Z"/><path class="cls-1" d="M369.16,71.44a1.83,1.83,0,0,1-1.84.71c-5.59,0-11.17,0-16.76,0-2.22,0-2.32-.09-3.07-2.22s-1.54-4.52-2.27-6.8c-.51-1.6-1.5-2.17-3.21-2.15-6.7.09-13.41.07-20.11,0a2.53,2.53,0,0,0-2.83,2c-.82,2.58-1.73,5.13-2.61,7.69a2,2,0,0,1-1.66,1.5c-1.59.22-16.87-.12-19-.44-.45-1,.3-1.81.62-2.64q12.38-31.62,24.78-63.21c.29-.74.6-1.48.88-2.22a2.09,2.09,0,0,1,2.14-1.52c5.27,0,10.54,0,15.81,0a1.87,1.87,0,0,1,1.87,1.17c.32.73.63,1.47.92,2.21q12.82,32,25.64,63.9C368.75,70.11,369,70.84,369.16,71.44ZM332.45,25.57c-.52.3-.94.39-1,.61-2.2,6.41-4.77,12.7-6.67,19.49,5,.37,9.7.15,14.81.18C337.39,38.79,334.89,32.22,332.45,25.57Z"/><path class="cls-1" d="M151,192.06c-6.93,0-13.15,0-19.36,0a2.24,2.24,0,0,1-2.4-1.81c-.75-2.27-1.54-4.53-2.35-6.78-.88-2.48-.9-2.52-3.3-2.56-3.19,0-6.38,0-9.58,0s-6.38,0-9.58,0-3.11,0-4.09,2.81c-.8,2.25-1.57,4.52-2.31,6.79-.27.85-.75,1.49-1.63,1.49-6.34,0-12.69.19-18.89-.08-.6-1.34.16-2.13.48-2.94q12.35-31.62,24.78-63.22c.29-.74.63-1.47.88-2.22a2.05,2.05,0,0,1,2.14-1.54c5.27,0,10.54,0,15.81,0a2.2,2.2,0,0,1,2.13,1.58c.56,1.32,1,2.67,1.59,4q12.11,30.18,24.22,60.36C150,189.1,150.32,190.29,151,192.06Zm-37.08-47a6.23,6.23,0,0,0-1,1.3q-3.14,8.75-6.19,17.52a1.41,1.41,0,0,0,.52,1.82c4.37,0,8.94.23,13.91-.18C118.83,158.54,116.35,151.9,113.87,145.09Z"/><path class="cls-1" d="M526.48,18.94h-5.16c-5.91,0-11.82,0-17.73,0-1.71,0-2,.3-2,1.87,0,2.39,0,4.79.07,7.19a1.17,1.17,0,0,0,1.18,1.22c1.27.05,2.55.09,3.82.09,5.28,0,10.55,0,15.82,0,1.65,0,2,.36,2,2,0,4,0,8,0,12a1.54,1.54,0,0,1-1.73,1.75l-16.78,0c-1.12,0-2.24,0-3.35.07a1,1,0,0,0-1,.9,27.34,27.34,0,0,0-.11,2.86c.1,2-.84,4.57.51,6s3.93.54,6,.56c5.75.08,11.51,0,17.26,0,2.41,0,2.53.13,2.55,2.33,0,4.15,0,8.3,0,12.46,0,1.58-.36,1.91-2,1.92-4.16,0-8.31,0-12.47,0H487c-1.12,0-2.24,0-3.35,0A1.17,1.17,0,0,1,482.38,71c-.05-1-.07-1.92-.07-2.87q0-30.93,0-61.84c0-4.62,0-4.21,4.1-4.21h36.43c1,0,1.92,0,2.87.05a1.24,1.24,0,0,1,1.2,1.22A118.78,118.78,0,0,1,526.48,18.94Z"/><path class="cls-1" d="M166,29.32c6.26,0,12,0,17.74,0,6,0,5.15-.45,5.21,5,0,2.71,0,5.43,0,8.14,0,2.53-.06,2.58-2.78,2.6-6.07,0-12.14,0-18.2,0-1.67,0-2,.3-2,1.94,0,2.4,0,4.79,0,7.19a1.15,1.15,0,0,0,1.18,1.21c1.11.06,2.23.07,3.35.07,6.38,0,12.77,0,19.16,0,2.37,0,2.56.18,2.59,2.32q.06,6.22,0,12.45c0,1.6-.35,1.88-2,2-.79,0-1.59,0-2.39,0H151.54c-1,0-1.92,0-2.88,0-1.53-.08-1.78-.37-1.86-2.09,0-.47,0-.95,0-1.43V5.94c0-.8,0-1.6,0-2.39a1.44,1.44,0,0,1,1.57-1.41c.48,0,1,0,1.44,0h38.8c.48,0,1,0,1.44,0a1.48,1.48,0,0,1,1.46,1.56q0,6.95-.06,13.88a1.21,1.21,0,0,1-1.19,1.25c-1.28.07-2.55.09-3.83.09q-9.34,0-18.68,0c-1.13,0-1.79.44-1.79,1.66C166,23.3,166,26,166,29.32Z"/><path class="cls-1" d="M629.81,26.6c1.51-.92,1.79-2.26,2.36-3.36,2.91-5.67,5.76-11.37,8.63-17.06,2.49-4.92,1.5-4,6.85-4.06s10.48,0,15.62,0c.7,1.5-.3,2.33-.81,3.23-6.87,12.06-13.72,24.11-20.69,36.1a13.08,13.08,0,0,0-1.95,7.2c.13,6.22,0,12.45,0,18.67v4.06a3.56,3.56,0,0,1-2.94.78c-4.95,0-9.9,0-14.84,0-1.62,0-1.91-.33-1.92-2,0-7.19-.09-14.37,0-21.55a13.45,13.45,0,0,0-1.95-7.22c-6.71-11.59-13.29-23.25-19.91-34.89-.47-.83-1-1.64-1.43-2.48-.59-1.16-.22-1.83,1.06-1.84,4.47,0,8.94-.07,13.41,0,7.07.1,5.34-1.09,8.57,5.17C623,13.24,626,19.23,629,25.2,629.24,25.62,629.49,26,629.81,26.6Z"/><path class="cls-1" d="M7.43,2.27C9,2.2,9.92,2.11,10.87,2.11h49.8c.64,0,1.28,0,1.92,0,1.69.06,2.07.34,2.08,1.87,0,4.63,0,9.26,0,13.89,0,1.18-.62,1.69-1.78,1.69q-6,0-12,0c-1.27,0-2.55,0-3.82.09a1.18,1.18,0,0,0-1.2,1.21c-.08,1.27-.09,2.55-.09,3.82q0,21.07,0,42.14c0,1.28,0,2.56,0,3.84,0,1-.63,1.38-1.54,1.44l-.47,0c-5.11,0-10.22,0-15.33,0-1.87,0-2.08-.3-2.13-2.31,0-1.12,0-2.24,0-3.35V25.29c0-.79,0-1.59,0-2.39.08-3.55-.29-3.31-3.55-3.32H9.35c-1.09,0-1.91-.36-1.91-1.58C7.42,12.9,7.43,7.82,7.43,2.27Z"/><path class="cls-1" d="M376.21,72.16V7c0-1.11,0-2.23,0-3.35a1.46,1.46,0,0,1,1.52-1.48c.32,0,.64,0,1,0,4.95,0,9.9,0,14.85,0,1.89,0,2.16.33,2.23,2.27.05,1.12,0,2.24,0,3.35V49.42c0,1.27,0,2.55.09,3.82a1.23,1.23,0,0,0,1.19,1.24c1.11.08,2.23.06,3.35.06,6.07,0,12.13,0,18.2,0,1.66,0,2,.3,2,2,0,4.63,0,9.26,0,13.89,0,1.16-.5,1.77-1.71,1.75s-2.23,0-3.35,0H376.21Z"/><path class="cls-1" d="M473.75,71.43a4.23,4.23,0,0,1-3.05.73H432.35a15.18,15.18,0,0,1-1.91-.09,1.24,1.24,0,0,1-1.21-1.22c-.05-.95-.05-1.91-.05-2.87q0-30.68,0-61.36c0-.64,0-1.28,0-1.92.08-2.27.29-2.55,2.43-2.58,3.52-.05,7,0,10.55,0,1.6,0,3.2,0,4.79,0s1.85.45,1.91,2.11c.05,1.28,0,2.56,0,3.84V49.31c0,1.27,0,2.55.06,3.83,0,1,.63,1.37,1.55,1.38l3.83,0c5.76,0,11.51,0,17.26,0,1.78,0,2.15.33,2.16,1.82C473.78,61.47,473.75,66.57,473.75,71.43Z"/></g></g></svg>