<svg xmlns="http://www.w3.org/2000/svg" viewBox="0 0 929.66 886.62"><defs><style>.cls-1{fill:#fff;}</style></defs><g id="Capa_2" data-name="Capa 2"><g id="Capa_1-2" data-name="Capa 1"><path class="cls-1" d="M652.72,675.38a14.87,14.87,0,0,1-6.6-1.59,51,51,0,0,1-8.29-4.79c-5-3.43-10-6.94-15-10.37A51.62,51.62,0,0,0,612.34,653a8.63,8.63,0,0,0-6.9.16c-10.75,4.47-21.57,8.78-32.37,13.12-2.51,1-5.1,1.86-7.57,3a17.09,17.09,0,0,0-10.73,14.22c-.77,6-2.26,11.92-3.34,17.89-.6,3.3-1.21,6.6-1.74,9.91a27.76,27.76,0,0,1-2.22,7.8,12.4,12.4,0,0,1-9.48,7.27,21.2,21.2,0,0,1-6.2.43c-6.21-.74-12.45-.54-18.68-.51-12.47,0-24.93.15-37.4.21-1.76,0-3.52-.06-5.27-.15-7.18-.37-9.6-2.23-11.34-9.29-1-4.18-1.64-8.46-2.41-12.71-1-5.34-1.87-10.69-2.86-16a35.56,35.56,0,0,0-2.86-8.61,23.65,23.65,0,0,0-12.81-12.31,22.78,22.78,0,0,0-3.58-1.34c-8.69-1.89-16.51-5.86-24.26-10q-2.74-1.46-5.48-3c-4.82-2.66-9.37-2.35-13.92.84-9.68,6.78-19.46,13.42-29.22,20.09a36.81,36.81,0,0,1-4.47,2.76,9,9,0,0,1-10.31-1.12,38.57,38.57,0,0,1-3.49-3.27q-21.19-21.54-42.34-43.12c-1.67-1.71-3.26-3.5-4.78-5.35-2.38-2.87-2.57-6.07-1.2-9.44a38.83,38.83,0,0,1,4-7.08c3.77-5.56,7.58-11.08,11.33-16.64,1.34-2,2.65-4,3.79-6.11a26.52,26.52,0,0,0,3.07-16.69,91.85,91.85,0,0,0-8.48-28.32c-7.95-16-20.85-25.41-38.47-28.44a103.67,103.67,0,0,0-11-1.14c-1.6-.11-3.19-.23-4.77-.45-4.25-.61-6.84-3.12-8.11-7.15a21.91,21.91,0,0,1-.88-6.63q0-19.65,0-39.32c0-7.84,0-15.67,0-23.5a25.3,25.3,0,0,1,.55-6.19,8.07,8.07,0,0,1,5-6,29.65,29.65,0,0,1,5-1.62c6.57-1.33,13.16-2.57,19.75-3.81a81.57,81.57,0,0,0,11.63-2.76l2.7-1c8.27-3.06,13.74-8.92,15.6-17.44,2.07-9.51,6-18.13,10.63-26.56a46.15,46.15,0,0,0,2.08-4.31,14.25,14.25,0,0,0-1-13.75c-1.44-2.3-3-4.52-4.49-6.79-5.06-7.76-9.88-15.68-15.39-23.14a21.28,21.28,0,0,1-2.29-4.19,11.14,11.14,0,0,1,.72-10.56,26.67,26.67,0,0,1,4.24-5.18q19.36-19.64,38.7-39.28c2.36-2.39,4.76-4.73,7.25-7,3.51-3.18,7.41-3.48,11.46-1.08,2.33,1.38,4.6,2.87,6.83,4.42,5.38,3.74,10.79,7.44,16,11.35,8.7,6.49,18.19,8,28.58,5.23a99.79,99.79,0,0,0,21.05-7.76c15.86-8.37,24.83-21.54,27.41-39.21a82.44,82.44,0,0,0,.92-11.94c0-.64,0-1.28.05-1.92.47-5.66,3.48-9.07,9-10.29a28.78,28.78,0,0,1,6.67-.56c9.91.11,19.82.26,29.73.26,9.27,0,18.54-.13,27.81-.23a36.46,36.46,0,0,1,6.68.42,11.26,11.26,0,0,1,9,7.63,19.56,19.56,0,0,1,1,3.69c1.7,9.91,3.34,19.84,5.07,29.75a43.17,43.17,0,0,0,1.53,6A17.46,17.46,0,0,0,567,260.92c1.66.55,3.39.91,5.08,1.39a120,120,0,0,1,26.77,11.48,51.43,51.43,0,0,0,4.65,2.44,11.9,11.9,0,0,0,10.64-.36A35,35,0,0,0,619,272.8c9.36-7,19.34-13,29.08-19.43a15.47,15.47,0,0,1,3-1.55c3.54-1.33,6.9-1.11,9.88,1.43,1,.83,1.86,1.76,2.75,2.67l44.49,45.71c.78.8,1.57,1.59,2.27,2.46a9.9,9.9,0,0,1,1.32,11.21,35.63,35.63,0,0,1-2.45,4.11c-6.06,9.2-12.16,18.39-18.22,27.59a28.82,28.82,0,0,0-2,3.29,15.53,15.53,0,0,0-.34,13.87c.59,1.31,1.27,2.57,2,3.83A148.71,148.71,0,0,1,704,400.26c.21.77.4,1.55.66,2.3,1.62,4.72,4.76,7.92,9.66,9.1,4.19,1,8.42,1.83,12.64,2.68,7.2,1.45,14.41,2.83,21.61,4.28a35.31,35.31,0,0,1,4.62,1.22c5,1.75,7.77,5.42,8.47,10.6a43,43,0,0,1,.24,6.22c-.21,18.71-.38,37.41.11,56.11a38.51,38.51,0,0,1-.23,5.26c-.73,6.7-4.42,10.78-11,12.23a32.47,32.47,0,0,1-3.79.6,112.86,112.86,0,0,0-15,2.92,75.08,75.08,0,0,1-8,1.44c-7.39.9-13.44,4.11-17.59,10.35-7.42,11.13-13,23-15,36.45a48.7,48.7,0,0,0,4.81,29.76A67.53,67.53,0,0,0,708,608a37,37,0,0,1,3.48,4,9.53,9.53,0,0,1,.07,11.62,16.09,16.09,0,0,1-2.5,2.9,208.67,208.67,0,0,0-18.15,19.11,202.58,202.58,0,0,1-25.1,23.64,36.13,36.13,0,0,1-6.76,4.53A12.16,12.16,0,0,1,652.72,675.38ZM503.5,344.24a119,119,0,0,0-27.11,3.5c-26.27,6.84-47.69,21.17-64.53,42.32a118.88,118.88,0,0,0-21.3,108.52C407.8,556.84,465.15,593.2,526,582c29-5.34,52.64-20.11,70.29-43.79,18.84-25.28,26.28-53.94,23.73-85.28a112.29,112.29,0,0,0-15.79-49.78C581.29,365.39,547.54,345.92,503.5,344.24Z"/><path class="cls-1" d="M464.88,886.38q-229,0-458,0c-2,0-4.54.84-6-.5s-.61-3.92-.61-6q0-311.73,0-623.48c0-1.6,0-3.19.07-4.79a1.19,1.19,0,0,1,1.22-1.19c.8-.07,1.6-.08,2.39-.08H42.78c.8,0,1.6,0,2.39.06a1.18,1.18,0,0,1,1.17,1.23c0,1.59.06,3.19.06,4.79q0,113.42,0,226.85,0,175.53,0,351.07c0,7.15-1.08,6.24,6.41,6.24H876.25c1.9,0,4.25.77,5.58-.41,1.58-1.39.65-3.91.65-5.93q0-390.4,0-780.79c0-7.36,1-6.29-6.33-6.29q-72.17-.06-144.35,0c-6,0-5.37.73-5.3-5.38q.24-18.71.52-37.4A26.5,26.5,0,0,1,727.21,1a1.33,1.33,0,0,1,.91-.89A26.73,26.73,0,0,1,731.47,0h34q79.37,0,158.74,0c6.14,0,5.37-.82,5.37,5.26q0,437.88,0,875.76c0,6.11.79,5.31-5.33,5.31Z"/><path class="cls-1" d="M546.23,782.77q-136.92,0-273.83,0c-1.89,0-4.1.75-5.59-.42s-.93-3.59-1.18-5.45c-5.08-37.5-5.7-75.18-4.43-112.93.11-3.36.35-6.71.61-10.05a10.5,10.5,0,0,1,.65-3.26,4.88,4.88,0,0,1,7.91-1.87,17.32,17.32,0,0,1,1.35,1.36c14.88,15.85,30.11,31.35,45.45,46.76a74.44,74.44,0,0,0,14,11.57c7,4.23,14.5,6.62,22.75,6.17a44,44,0,0,0,16.1-4.27,72.7,72.7,0,0,0,11.51-6.86c3.25-2.3,6.52-4.61,9.9-6.72a21.77,21.77,0,0,1,9.88-3.36,18.75,18.75,0,0,1,18.91,11.2c1.62,3.54,2.12,7.34,2.85,11.1.94,4.86,1.78,9.74,2.9,14.55a43.78,43.78,0,0,0,5.59,13.17c6.38,10.23,15.6,16.2,27.41,18.31a56.93,56.93,0,0,0,10,.85q31.89,0,63.78.06a90.71,90.71,0,0,0,19.52-1.92c11-2.39,19.05-8.58,24.06-18.7a91.25,91.25,0,0,0,6.8-20.4c1.06-4.66,2-9.37,2.74-14.09a13.73,13.73,0,0,1,4.83-8.56c.37-.31.74-.61,1.13-.89,9.52-6.73,16.63-7,26-.54,2.49,1.73,4.84,3.66,7.28,5.46a61.86,61.86,0,0,0,19.47,10.05,36.34,36.34,0,0,0,27.86-2.75A51.09,51.09,0,0,0,685.11,701c17.07-17.07,34-34.26,50.6-51.79a58.49,58.49,0,0,0,6.53-8.27c7.16-11,8.76-22.74,4.49-35.24A73,73,0,0,0,739,589.78c-2.41-3.77-4.92-7.47-7.27-11.28a19.64,19.64,0,0,1-3-13.73c1.28-8,5.9-13.3,13.55-15.82,3.78-1.25,7.69-2.12,11.55-3.1s7.76-1.87,11.63-2.84a44.32,44.32,0,0,0,9.8-3.77c12.19-6.36,18.88-16.54,20-30.09.71-8.43.76-16.93.78-25.39.06-18.55-.08-37.09-.19-55.63a52.43,52.43,0,0,0-1.06-11.92c-3.76-15.94-13.91-25.88-29.37-30.44-5.95-1.75-12.15-2.67-18.23-4a21.21,21.21,0,0,0-2.83-.49c-11.34-.74-20.12-17.55-14.47-28.25a84.09,84.09,0,0,1,4.89-8.23A131.54,131.54,0,0,0,743,331.37a65.12,65.12,0,0,0,4.75-11.49,35.05,35.05,0,0,0-2.42-27,66.48,66.48,0,0,0-8.65-12.63c-5.08-6-10.78-11.36-16.24-17C713.33,256,706.13,248.7,699,241.39a18,18,0,0,1-2.46-2.92,4.22,4.22,0,0,1,2.35-6.55,12.79,12.79,0,0,1,2.8-.58,587,587,0,0,1,64.13-3.2c12.47.11,24.94.07,37.4.26,7,.11,14.06.53,21.08.84,1.73.08,2,.34,2,1.93.05,1.28,0,2.56,0,3.84q0,271,0,541.94c0,1.84.82,4.11-.67,5.42-1.27,1.11-3.38.38-5.11.39Q683.39,782.79,546.23,782.77Z"/><path class="cls-1" d="M274.08,47.06c-5.26,0-10.05,0-14.84,0-1.81,0-2-.22-2-1.86,0-2.87,0-5.75,0-8.63A1.59,1.59,0,0,1,259,34.82h32.6c.64,0,1.28,0,1.92,0,1.6.08,2,.47,2,2a36.63,36.63,0,0,1-1.37,9.94c-5,19.07-20.25,27.37-34.87,27.33a39.19,39.19,0,0,1-18.07-3.91c-12-6.08-18.32-16-19.56-29.24a37.35,37.35,0,0,1,1.93-16.53c4.93-13.36,14.63-21,28.52-23.28a39.35,39.35,0,0,1,22.54,2.7C284.21,8,290.9,14.87,294.06,25a8.84,8.84,0,0,1,.46,2.33.89.89,0,0,1-.83,1c-.32,0-.64.1-.95.1-5.27,0-10.55,0-15.82,0a3.3,3.3,0,0,1-3.16-1.64c-4.45-6.85-10.95-8.9-18.7-7.67a14.91,14.91,0,0,0-11.5,8.45,21.23,21.23,0,0,0-.16,19.39c2.54,5.29,7,8.18,12.81,8.82a20,20,0,0,0,12.08-2.1C271.21,52.07,272.38,50.8,274.08,47.06Z"/><path class="cls-1" d="M188,120.47c8.61-.07,15.75,1.4,22.23,5.26,10.49,6.24,16.19,15.56,17.27,27.69A38.44,38.44,0,0,1,226,169c-3.73,11.25-11.35,18.76-22.44,22.55a42.81,42.81,0,0,1-28.69-.09c-18.51-6.5-25.82-23.3-23.78-39.24,2.76-21.55,19.74-30.49,33.3-31.54C185.94,120.6,187.54,120.51,188,120.47Zm19.53,36.77c.18-8.91-5-15.25-11.39-17.64-9.94-3.74-22.74.93-25,14.1-2.21,12.93,7.7,25.23,23.42,21.46C202.61,173.24,207.51,166.06,207.54,157.24Z"/><path class="cls-1" d="M12.5,156.82v-29.2c0-1.28,0-2.55,0-3.83s.71-1.68,1.84-1.68h2.39c7.82,0,15.64,0,23.46,0a43.78,43.78,0,0,1,14.55,2.39c13,4.58,21.39,16.19,22.1,30.12a36.71,36.71,0,0,1-2,15.07c-5,13.25-14.9,20.26-28.65,22.15a61,61,0,0,1-8.12.29q-11.49,0-23,0c-2.56,0-2.61-.06-2.61-2.76Q12.48,173.1,12.5,156.82Zm19.31.27h0v11.46c0,1.44,0,2.87,0,4.3,0,1.21.68,1.68,1.81,1.68h7.16a16.4,16.4,0,0,0,6.48-1.43c6.58-2.85,9.46-8.18,9.86-15.08.59-10.37-6.21-17.8-16.54-18.08-2.06-.06-4.14,0-6.21,0-2.4,0-2.54.16-2.56,2.35C31.79,147.22,31.81,152.15,31.81,157.09Z"/><path class="cls-1" d="M133.33,71.71c-2.12.83-3.89.49-5.63.5-4.15.05-8.31,0-12.47,0A1.1,1.1,0,0,1,114,71.06q-.06-1.68-.06-3.36c0-5.75,0-11.5,0-17.26,0-1.12,0-2.24,0-3.35A1.64,1.64,0,0,0,112,45.4H93.52c-1,1.77-.66,3.4-.67,5,0,6.55,0,13.1,0,19.66,0,1.74-.35,2.17-1.77,2.18-5.73,0-11.47,0-16.82,0-1.24-1.06-1-2.07-1-3q0-31.65,0-63.3c0-.64,0-1.28,0-1.92A1.62,1.62,0,0,1,75,2.21c.79,0,1.59,0,2.39,0,4.48,0,9,0,13.43,0,1.53,0,2,.45,2,2q0,9.35,0,18.7c0,5.16-.15,4.65,4.66,4.65s9.59,0,14.38,0c1.52,0,2-.5,2-2,0-6.07,0-12.15,0-18.22,0-5.91-.49-5.12,5.06-5.16,4.15,0,8.31,0,12.46,0,1.12,0,1.83.47,1.86,1.67,0,.8,0,1.6,0,2.4q0,31.41,0,62.82Z"/><path class="cls-1" d="M597.33,71.91a6,6,0,0,1-1.28.29c-5.75,0-11.5,0-17.24,0a3.3,3.3,0,0,1-3.35-2.08C572.84,65.06,570.11,60,567.38,55c-2.61-4.84-1.18-4-7.35-4.08-1.2,0-1.72.55-1.72,1.71q0,7.19,0,14.37c0,1.27,0,2.55,0,3.83,0,1-.66,1.36-1.54,1.41-.64,0-1.28,0-1.92,0-4.15,0-8.3,0-12.45,0-3.24,0-3.24,0-3.28-3.52V6.44c0-4.69-.19-4.32,4.48-4.32H568A33.46,33.46,0,0,1,579.73,4c17.47,6.5,19.7,27.8,10.06,38.31a53.61,53.61,0,0,1-4.28,3.81,1.51,1.51,0,0,0-.41,2.09c1.45,2.65,2.88,5.33,4.33,8,2.36,4.34,4.77,8.66,7.1,13C597,70,597.77,70.74,597.33,71.91ZM563.67,34.66a39.94,39.94,0,0,0,5.7-.29,7.48,7.48,0,0,0,4.49-12.19,8.47,8.47,0,0,0-6.36-2.79c-2.38-.13-4.77-.07-7.16,0-1.63,0-2,.36-2,1.92q-.08,4,0,8.11C558.38,35.4,557.42,34.5,563.67,34.66Z"/><path class="cls-1" d="M369.45,72.23c-4.62,0-8.6.07-12.58,0-2.83-.07-5.71.5-8.51-.42-1.43-2.34-1.86-5.07-2.89-7.57-.19-.44-.27-.92-.44-1.37a2.36,2.36,0,0,0-2.49-1.77c-2.56.07-5.11,0-7.67,0-4.15,0-8.31,0-12.46,0-2.71,0-2.76.07-3.7,2.73-.8,2.26-1.51,4.55-2.27,6.81a2.07,2.07,0,0,1-1.65,1.54c-1.49.26-17-.06-19-.4-.37-1.22.42-2.17.81-3.17q12.29-31.41,24.64-62.8c1.64-4.18,1.27-3.56,5-3.6,4.16,0,8.32.14,12.46-.07,2.21-.11,3.18.81,3.82,2.7S344,8.7,344.8,10.62Q356.38,39.49,368,68.36C368.36,69.38,368.75,70.41,369.45,72.23Zm-29.9-26.56L332.69,26.2c-.13-.38-.38-.55-.7-.39s-.63.31-.71.54q-3.21,9.23-6.34,18.45c-.09.26.07.6.16,1.15,4.08,0,8.2,0,12.32,0A18.59,18.59,0,0,0,339.55,45.67Z"/><path class="cls-1" d="M150.93,192.14c-4.11,0-7.61,0-11.11,0-3.18,0-6.37-.14-9.55-.21-2.16-2.51-2.33-5.83-3.56-8.72-.85-2-.87-2.18-3.11-2.19-6.72,0-13.43,0-20.14,0a2.71,2.71,0,0,0-3,2.3c-.69,2.45-1.69,4.82-2.46,7.25a2,2,0,0,1-2.07,1.59q-8.15,0-16.3,0a22.69,22.69,0,0,1-2.33-.23c-.19-1.49.54-2.59,1-3.75q12.19-31.2,24.45-62.38c1.54-3.93.9-3.67,5.49-3.67,4.32,0,8.63,0,12.94,0a2.42,2.42,0,0,1,2.54,1.72c.75,1.93,1.51,3.87,2.28,5.79q11.67,29.1,23.36,58.19C149.78,189,150.19,190.14,150.93,192.14ZM113.81,145c-2.6,4.89-6.88,17.51-7.12,20.89h4.76c1.6,0,3.19,0,4.78,0s3.06.26,4.83-.4C118.63,158.58,116.3,152,113.81,145Z"/><path class="cls-1" d="M188.74,30c.37,4.43.1,9,.15,13.61a1.33,1.33,0,0,1-1.42,1.51c-1.75,0-3.51,0-5.26,0-4.63,0-9.26,0-13.89,0-2.29,0-2.35.09-2.37,2.51,0,2.23,0,4.46.07,6.7a1.13,1.13,0,0,0,1.23,1.16c1.27,0,2.55.06,3.83.06,6.38,0,12.77,0,19.15,0,1.73,0,2,.28,2,1.89q.06,6.46,0,12.93c0,1.57-.33,1.86-2.06,1.87-6.06,0-12.13,0-18.2,0-6.86,0-13.73,0-20.59,0-1.42,0-2.88.28-4.23-.35-.65-.87-.43-1.85-.43-2.78q0-31.61,0-63.22c0-.8,0-1.6.07-2.39A1.29,1.29,0,0,1,148,2.28a13.5,13.5,0,0,1,1.91-.08h38.32l1.43,0a1.66,1.66,0,0,1,1.88,1.68,3.62,3.62,0,0,1,0,.47c0,4.16,0,8.31,0,12.46,0,1.78-.44,2.15-2.34,2.17-4.31,0-8.62,0-12.93,0-2.71,0-5.43,0-8.14,0-2,0-2.2.14-2.14,2.23.07,2.53-.42,5.09.31,7.6,2.4,1.2,5,.43,7.44.52,3.83.15,7.67,0,11.5.05A6.06,6.06,0,0,1,188.74,30Z"/><path class="cls-1" d="M527.77,71.68a5.9,5.9,0,0,1-3.61.62q-19.15,0-38.31,0c-.64,0-1.28,0-1.92,0-1.21,0-1.65-.72-1.65-1.83,0-1,0-1.91,0-2.87V7.23c0-1,0-1.92,0-2.87.09-1.79.42-2.15,2.34-2.15q17.25,0,34.49,0c1.91,0,3.83,0,5.74,0,1.56,0,2,.45,2,2q.06,6.47,0,12.93c0,1.5-.45,1.89-2.08,1.89-5.75,0-11.49,0-17.24,0-1.6,0-3.19,0-4.79.05a1.16,1.16,0,0,0-1.25,1.14,1.93,1.93,0,0,0,0,.47c.23,2.82-.64,5.72.57,8.47,2.52.58,5.07.22,7.61.27,4.31.06,8.62,0,12.93,0a1.56,1.56,0,0,1,1.79,1.71c0,.16,0,.32,0,.48-.3,4.42.67,8.88-.54,13.26-4.13.57-8.27.17-12.41.26-2.71.06-5.43,0-8.14,0-1.14,0-1.82.41-1.82,1.62,0,2.4,0,4.79,0,7.19,0,1.2.69,1.63,1.83,1.63q10.06,0,20.12,0c4.75,0,4.33-.4,4.34,4.38C527.78,63.94,527.77,67.92,527.77,71.68Z"/><path class="cls-1" d="M664.14,2.19c-1.22,2.22-2,3.62-2.75,5-6.5,11.36-13,22.74-19.54,34.07a13.91,13.91,0,0,0-2.12,7.65c.2,6.71.07,13.43,0,20.14a4.75,4.75,0,0,1-.35,2.78,6.15,6.15,0,0,1-3.28.4c-4.48,0-8.95,0-13.43,0-2.46,0-2.6-.18-2.62-2.8,0-5.91,0-11.83,0-17.74,0-6.89,0-6.88-3.51-13q-9.26-16.23-18.49-32.47c-.6-1.06-1.65-2-1.43-3.46.53-.87,1.41-.5,2.13-.51,4.79,0,9.59,0,14.38,0,4.53,0,3.82-.5,6.05,3.87,2.69,5.26,5.33,10.54,8,15.81.79,1.56,1.6,3.12,2.38,4.66,1.26-.14,1.44-1.14,1.85-1.94,3.32-6.55,6.71-13.06,9.92-19.66,1-2,2-2.87,4.35-2.81C651.59,2.31,657.46,2.19,664.14,2.19Z"/><path class="cls-1" d="M36.38,2.19H60.8c.8,0,1.6,0,2.4,0A1.61,1.61,0,0,1,65,4c0,1.92,0,3.83,0,5.75,0,2.71,0,5.43,0,8.14a1.59,1.59,0,0,1-1.77,1.77c-4.31,0-8.62,0-12.93,0-4.66,0-4.31-.41-4.31,4.44V66.72c0,1.12,0,2.23,0,3.35-.06,1.82-.34,2.13-2.32,2.14-5.11,0-10.22,0-15.32,0-1.21,0-1.71-.58-1.7-1.74,0-1.92,0-3.84,0-5.75V24.5c0-1,0-1.92,0-2.88-.08-1.44-.55-1.92-2.1-1.94-3.35-.06-6.71.07-10.06-.07-2.18-.08-4.45.61-6.55-.53-.56-2-.23-4.12-.27-6.18,0-3,0-6.07,0-9.1A1.4,1.4,0,0,1,9.08,2.24c1.12,0,2.23-.05,3.35-.05Z"/><path class="cls-1" d="M473.7,71.5a4.21,4.21,0,0,1-3,.73H432.33a17.33,17.33,0,0,1-1.91-.08,1.24,1.24,0,0,1-1.23-1.2c-.05-1-.06-1.91-.06-2.87V6.73c0-.8,0-1.6,0-2.39.08-1.7.38-2.11,1.91-2.12q7.9-.06,15.82,0c1.54,0,1.89.43,1.92,2.09,0,2.23,0,4.47,0,6.71q0,19.65,0,39.3c0,1,0,1.92,0,2.87a1.37,1.37,0,0,0,1.53,1.41c1.12,0,2.23,0,3.35,0h15.82c.8,0,1.6,0,2.39,0a1.56,1.56,0,0,1,1.73,1.77q0,5.76,0,11.5Z"/><path class="cls-1" d="M420.46,55.23c.26,5.06.1,10.31.1,15.56,0,1-.59,1.4-1.51,1.42s-1.6,0-2.4,0q-18.19,0-36.39,0c-1.26,0-2.56.25-3.76-.41-.56-1-.32-2.18-.33-3.27q0-31.13,0-62.26c0-.8,0-1.6,0-2.39,0-1.2.73-1.68,1.85-1.68,5.27,0,10.53,0,15.8,0,1.47,0,1.84.46,1.91,2.1.05,1.28,0,2.56,0,3.83V49.34c0,1.28,0,2.56.05,3.83a1.38,1.38,0,0,0,1.54,1.43c1.11,0,2.23,0,3.35,0,5.43,0,10.85,0,16.28,0C418.06,54.65,419.2,54.35,420.46,55.23Z"/></g></g></svg>